<svg xmlns="http://www.w3.org/2000/svg" viewBox="0 0 512 512">
  <rect width="512" height="512" rx="112" fill="#07111f"/>
  <path d="M256 72l148 56v108c0 91-58 172-148 204-90-32-148-113-148-204V128l148-56z" fill="#0d1f35" stroke="#7dcfff" stroke-width="18"/>
  <path d="M316 134c-53 16-91 65-91 123 0 57 37 106 89 123-17 8-37 12-58 12-76 0-137-61-137-136s61-136 137-136c22 0 42 5 60 14z" fill="#e0af68"/>
  <path d="M154 340l62-164 40 106 40-106 62 164h-36l-26-76-29 76h-22l-29-76-26 76h-36z" fill="#d7dde8"/>
</svg>
